HIERARCHY
ROOT Hips
{
  OFFSET 5.84602e-005 68.8428 3.50346
  CHANNELS 6 Xposition Yposition Zposition Zrotation Xrotation Yrotation
  JOINT Spine
  {
    OFFSET 0 8.597 -4.6522
    CHANNELS 3 Zrotation Xrotation Yrotation
    JOINT Spine1
    {
      OFFSET 0 7.8454 0.4098
      CHANNELS 3 Zrotation Xrotation Yrotation
      JOINT Spine2
      {
        OFFSET 0 9.7078 -2.1609
        CHANNELS 3 Zrotation Xrotation Yrotation
        JOINT Neck
        {
          OFFSET 0 21.8761 -0.4549
          CHANNELS 3 Zrotation Xrotation Yrotation
          JOINT Head
          {
            OFFSET 0 12.3537 3.3602
            CHANNELS 3 Zrotation Xrotation Yrotation
            End Site
            {
              OFFSET 0.0001 18.9506 0.5657
            }
          }
        }
        JOINT LeftShoulder
        {
          OFFSET 2.2086 21.1115 7.2329
          CHANNELS 3 Zrotation Xrotation Yrotation
          JOINT LeftArm
          {
            OFFSET 13.1193 3.0282 -4.8998
            CHANNELS 3 Zrotation Xrotation Yrotation
            JOINT LeftForeArm
            {
              OFFSET 27.4081 -0.0973053 -0.2375
              CHANNELS 3 Zrotation Xrotation Yrotation
              JOINT LeftHand
              {
                OFFSET 22.8641 0.0662994 -0.1369
                CHANNELS 3 Zrotation Xrotation Yrotation
                JOINT LeftHandIndex1
                {
                  OFFSET 8.8614 0.775009 2.4612
                  CHANNELS 3 Zrotation Xrotation Yrotation
                  JOINT LeftHandIndex2
                  {
                    OFFSET 3.3146 -0.808304 0.5841
                    CHANNELS 3 Zrotation Xrotation Yrotation
                    JOINT LeftHandIndex3
                    {
                      OFFSET 2.2628 -0.552002 0.3989
                      CHANNELS 3 Zrotation Xrotation Yrotation
                      End Site
                      {
                        OFFSET 1.6102 -0.4807 0.2612
                      }
                    }
                  }
                }
                JOINT LeftHandMiddle1
                {
                  OFFSET 8.9937 0.895004 0.2143
                  CHANNELS 3 Zrotation Xrotation Yrotation
                  JOINT LeftHandMiddle2
                  {
                    OFFSET 4.0984 0.0113983 -0.0242
                    CHANNELS 3 Zrotation Xrotation Yrotation
                    JOINT LeftHandMiddle3
                    {
                      OFFSET 2.2716 0.00689697 -0.0138001
                      CHANNELS 3 Zrotation Xrotation Yrotation
                      End Site
                      {
                        OFFSET 2.0404 -0.1441 0.0027
                      }
                    }
                  }
                }
                JOINT LeftHandRing1
                {
                  OFFSET 8.5234 0.597198 -2.0164
                  CHANNELS 3 Zrotation Xrotation Yrotation
                  JOINT LeftHandRing2
                  {
                    OFFSET 3.7188 -0.188293 -0.2328
                    CHANNELS 3 Zrotation Xrotation Yrotation
                    JOINT LeftHandRing3
                    {
                      OFFSET 2.1191 -0.106598 -0.1332
                      CHANNELS 3 Zrotation Xrotation Yrotation
                      End Site
                      {
                        OFFSET 1.8737 -0.2304 -0.0886
                      }
                    }
                  }
                }
                JOINT LeftHandPinky1
                {
                  OFFSET 7.9094 -0.601089 -3.4825
                  CHANNELS 3 Zrotation Xrotation Yrotation
                  JOINT LeftHandPinky2
                  {
                    OFFSET 2.2874 -0.477005 -0.6314
                    CHANNELS 3 Zrotation Xrotation Yrotation
                    JOINT LeftHandPinky3
                    {
                      OFFSET 1.6774 -0.349396 -0.4633
                      CHANNELS 3 Zrotation Xrotation Yrotation
                      End Site
                      {
                        OFFSET 1.4888 -0.4091 -0.3416
                      }
                    }
                  }
                }
                JOINT LeftHandThumb1
                {
                  OFFSET 1.833 -1.3875 1.3896
                  CHANNELS 3 Zrotation Xrotation Yrotation
                  JOINT LeftHandThumb2
                  {
                    OFFSET 3.4129 -1.121 2.5732
                    CHANNELS 3 Zrotation Xrotation Yrotation
                    JOINT LeftHandThumb3
                    {
                      OFFSET 2.2474 -0.804199 1.6192
                      CHANNELS 3 Zrotation Xrotation Yrotation
                      End Site
                      {
                        OFFSET 1.6527 -0.5689 1.1317
                      }
                    }
                  }
                }
              }
            }
          }
        }
        JOINT RightShoulder
        {
          OFFSET -2.2086 21.1115 7.2329
          CHANNELS 3 Zrotation Xrotation Yrotation
          JOINT RightArm
          {
            OFFSET -13.1216 3.0287 -4.9007
            CHANNELS 3 Zrotation Xrotation Yrotation
            JOINT RightForeArm
            {
              OFFSET -27.4081 -0.0973053 -0.2375
              CHANNELS 3 Zrotation Xrotation Yrotation
              JOINT RightHand
              {
                OFFSET -22.8641 0.0664063 -0.1369
                CHANNELS 3 Zrotation Xrotation Yrotation
                JOINT RightHandIndex1
                {
                  OFFSET -8.8614 0.774994 2.4612
                  CHANNELS 3 Zrotation Xrotation Yrotation
                  JOINT RightHandIndex2
                  {
                    OFFSET -3.3146 -0.808304 0.5841
                    CHANNELS 3 Zrotation Xrotation Yrotation
                    JOINT RightHandIndex3
                    {
                      OFFSET -2.2628 -0.552002 0.3989
                      CHANNELS 3 Zrotation Xrotation Yrotation
                      End Site
                      {
                        OFFSET -1.6102 -0.4807 0.2612
                      }
                    }
                  }
                }
                JOINT RightHandMiddle1
                {
                  OFFSET -8.9937 0.894989 0.2143
                  CHANNELS 3 Zrotation Xrotation Yrotation
                  JOINT RightHandMiddle2
                  {
                    OFFSET -4.0984 0.0113983 -0.0242
                    CHANNELS 3 Zrotation Xrotation Yrotation
                    JOINT RightHandMiddle3
                    {
                      OFFSET -2.2716 0.00691223 -0.0138001
                      CHANNELS 3 Zrotation Xrotation Yrotation
                      End Site
                      {
                        OFFSET -2.0404 -0.1441 0.0027
                      }
                    }
                  }
                }
                JOINT RightHandRing1
                {
                  OFFSET -8.5234 0.597198 -2.0164
                  CHANNELS 3 Zrotation Xrotation Yrotation
                  JOINT RightHandRing2
                  {
                    OFFSET -3.7188 -0.188309 -0.2328
                    CHANNELS 3 Zrotation Xrotation Yrotation
                    JOINT RightHandRing3
                    {
                      OFFSET -2.1191 -0.106598 -0.1332
                      CHANNELS 3 Zrotation Xrotation Yrotation
                      End Site
                      {
                        OFFSET -1.8737 -0.2304 -0.0886
                      }
                    }
                  }
                }
                JOINT RightHandPinky1
                {
                  OFFSET -7.9094 -0.601105 -3.4825
                  CHANNELS 3 Zrotation Xrotation Yrotation
                  JOINT RightHandPinky2
                  {
                    OFFSET -2.2874 -0.477005 -0.6314
                    CHANNELS 3 Zrotation Xrotation Yrotation
                    JOINT RightHandPinky3
                    {
                      OFFSET -1.6774 -0.349396 -0.4633
                      CHANNELS 3 Zrotation Xrotation Yrotation
                      End Site
                      {
                        OFFSET -1.4888 -0.4091 -0.3416
                      }
                    }
                  }
                }
                JOINT RightHandThumb1
                {
                  OFFSET -1.833 -1.38751 1.3896
                  CHANNELS 3 Zrotation Xrotation Yrotation
                  JOINT RightHandThumb2
                  {
                    OFFSET -3.41299 -1.12099 2.5732
                    CHANNELS 3 Zrotation Xrotation Yrotation
                    JOINT RightHandThumb3
                    {
                      OFFSET -2.24741 -0.804108 1.6192
                      CHANNELS 3 Zrotation Xrotation Yrotation
                      End Site
                      {
                        OFFSET -1.6527 -0.5689 1.1317
                      }
                    }
                  }
                }
              }
            }
          }
        }
      }
    }
  }
  JOINT RightUpLeg
  {
    OFFSET -9.1966 3.8861 -0.7581
    CHANNELS 3 Zrotation Xrotation Yrotation
    JOINT RightLeg
    {
      OFFSET -0.7359 -41.0265 0
      CHANNELS 3 Zrotation Xrotation Yrotation
      JOINT RightFoot
      {
        OFFSET 0 -40.2855 0
        CHANNELS 3 Zrotation Xrotation Yrotation
        JOINT RightToeBase
        {
          OFFSET 0 -5.6122 11.7359
          CHANNELS 3 Zrotation Xrotation Yrotation
          End Site
          {
            OFFSET 0 0 7.8731
          }
        }
      }
    }
  }
  JOINT LeftUpLeg
  {
    OFFSET 9.1965 3.8864 -0.7581
    CHANNELS 3 Zrotation Xrotation Yrotation
    JOINT LeftLeg
    {
      OFFSET 0.7359 -41.0268 0
      CHANNELS 3 Zrotation Xrotation Yrotation
      JOINT LeftFoot
      {
        OFFSET 0 -40.2855 0
        CHANNELS 3 Zrotation Xrotation Yrotation
        JOINT LeftToeBase
        {
          OFFSET 0 -5.6122 11.7359
          CHANNELS 3 Zrotation Xrotation Yrotation
          End Site
          {
            OFFSET 0 0 7.8731
          }
        }
      }
    }
  }
}
MOTION
Frames:	4
Frame Time:	0.0333333
4.88967 5.86225 7.42965 92.0831 0.254834 -179.705 0.455823 0.893851 -0.330873 0.916958 1.78503 -0.668971 0.916943 1.78503 -0.668971 9.03916 16.7035 -2.70334 7.31298e-006 15.4504 4.8112e-007 -10.6838 -9.0511 -12.8537 -57.6987 14.5584 -28.472 -7.39116 3.48397 -65.4076 -54.7601 4.26847 -8.13722 -1.98785e-016 3.18055e-015 5.46658e-016 -1.5348e-006 -1.85346e-006 -2.02712e-006 -3.06959e-006 -3.70691e-006 -4.05425e-006 -1.98785e-016 3.18055e-015 5.46658e-016 -0.0146118 -9.35254e-005 -5.50582e-007 -3.06926e-006 -3.70639e-006 -4.05472e-006 -1.98785e-016 3.18055e-015 5.46658e-016 -0.0187732 -0.00118817 5.96245e-005 -3.0692e-006 -3.70622e-006 -4.05483e-006 -1.98785e-016 3.18055e-015 5.46658e-016 -0.0122273 -0.00323798 0.000672187 -3.06945e-006 -3.70639e-006 -4.05457e-006 -1.98785e-016 3.18055e-015 5.46658e-016 -1.5348e-006 -1.85346e-006 -2.02712e-006 -3.06959e-006 -3.70691e-006 -4.05425e-006 -14.8277 -13.1076 -14.9029 54.173 9.56487 52.9732 56.6824 1.19966 72.0246 45.611 -10.0614 12.9543 -7.95139e-016 -1.59028e-015 -3.57812e-015 -1.59028e-015 0 -3.8763e-015 -1.59028e-015 -3.18055e-015 -1.09332e-015 -7.95139e-016 -1.59028e-015 -3.57812e-015 0.0150075 -8.78984e-005 -3.58986e-006 -0 0 8.94531e-016 -7.95139e-016 -1.59028e-015 -3.57812e-015 0.0190045 -0.00119285 -5.91446e-005 6.62086e-032 -1.59028e-015 2.38542e-015 -7.95139e-016 -1.59028e-015 -3.57812e-015 0.0122563 -0.00323896 -0.000671727 -7.95139e-016 -3.18055e-015 9.93923e-017 -7.95139e-016 -1.59028e-015 -3.57812e-015 -1.59028e-015 0 -3.8763e-015 -1.59028e-015 -3.18055e-015 -1.09332e-015 -21.2902 -34.0615 -15.2507 86.8023 28.4074 -99.4797 5.81304 19.3694 6.55526 1.43923e-006 8.82066e-007 5.17197e-008 6.89625 -0.419723 8.53242 -1.89982 54.0273 -0.338536 3.48326 36.8602 0.229418 6.95785e-007 6.40406e-009 -5.76631e-007 
4.92659 6.00059 7.69751 92.2127 0.280786 -179.617 0.453764 1.08231 -0.335374 0.914081 2.16197 -0.679492 0.914097 2.16197 -0.679492 8.52213 15.3443 -2.45116 1.16571e-005 14.755 -1.42625e-006 -10.6348 -9.87865 -12.256 -57.8376 14.993 -29.1662 -8.53993 4.43486 -62.5595 -53.8885 4.65726 -8.28731 -3.97569e-016 3.18055e-015 1.2921e-015 -3.97569e-016 3.18055e-015 2.38542e-015 -3.97569e-016 3.18055e-015 3.32964e-015 -3.97569e-016 3.18055e-015 1.2921e-015 -0.0145946 -8.66805e-005 2.89873e-007 1.98785e-016 9.54166e-015 2.5345e-015 -3.97569e-016 3.18055e-015 1.2921e-015 -0.0187609 -0.00117247 5.75377e-005 -1.49347e-006 -3.60827e-008 -1.18459e-006 -3.97569e-016 3.18055e-015 1.2921e-015 -0.0122767 -0.00324571 0.000675491 -1.98785e-016 -1.59028e-015 5.46658e-016 -3.97569e-016 3.18055e-015 1.2921e-015 -3.97569e-016 3.18055e-015 2.38542e-015 -3.97569e-016 3.18055e-015 3.32964e-015 -14.7274 -13.7968 -13.907 54.0287 9.31271 53.0495 56.5613 0.813882 71.9336 45.1497 -9.62102 12.725 -7.95139e-016 3.18055e-015 -2.78299e-015 7.95139e-016 1.59028e-015 3.47873e-015 0 0 -0 -7.95139e-016 3.18055e-015 -2.78299e-015 0.0149984 -9.88509e-005 5.79738e-006 -7.95139e-016 -3.18055e-015 -1.98785e-016 -7.95139e-016 3.18055e-015 -2.78299e-015 0.0189998 -0.00118974 -6.39356e-005 7.95139e-016 -3.18055e-015 -3.97569e-015 -7.95139e-016 3.18055e-015 -2.78299e-015 0.0122575 -0.00324125 -0.00067245 3.97569e-016 -3.18055e-015 1.2921e-015 -7.95139e-016 3.18055e-015 -2.78299e-015 7.95139e-016 1.59028e-015 3.47873e-015 0 0 -0 -21.2352 -34.3003 -15.305 86.8007 28.4074 -99.479 5.69706 19.399 6.29915 0 0 -3.18055e-015 6.89678 -0.77959 8.56822 -1.83274 54.3766 -0.3787 3.47916 36.8532 0.231011 7.06855e-007 9.82561e-009 -5.58869e-007 
4.95899 6.12637 7.93601 92.3597 0.310429 -179.518 0.451913 1.2509 -0.339378 0.911593 2.49907 -0.688865 0.911593 2.49907 -0.688865 8.06622 14.1253 -2.23762 -2.96767e-006 14.1335 1.81397e-006 -10.5839 -10.6182 -11.7193 -57.9579 15.3835 -29.7867 -9.61434 5.21368 -59.9811 -53.1078 5.00285 -8.427 3.97569e-016 0 2.18663e-015 3.97569e-016 0 2.33572e-015 3.97569e-016 0 2.48481e-015 3.97569e-016 0 2.18663e-015 -0.0146357 -8.92625e-005 -1.37797e-006 1.98785e-016 1.59028e-015 7.95139e-016 3.97569e-016 0 2.18663e-015 -0.0187345 -0.0011755 6.14371e-005 -1.09466e-007 -1.56016e-006 -8.71092e-007 3.97569e-016 0 2.18663e-015 -0.012266 -0.00324828 0.000674784 1.98785e-016 3.18055e-015 1.14301e-015 3.97569e-016 0 2.18663e-015 3.97569e-016 0 2.33572e-015 3.97569e-016 0 2.48481e-015 -14.6277 -14.4118 -13.0121 53.9001 9.08721 53.117 56.4527 0.469604 71.8509 44.7394 -9.22584 12.5235 5.93788e-007 -1.10855e-006 -2.04886e-006 -5.93788e-007 1.10855e-006 2.04886e-006 5.93788e-007 -1.10855e-006 -2.04886e-006 5.93788e-007 -1.10855e-006 -2.04886e-006 0.0149764 -9.18025e-005 -2.92304e-006 7.95139e-016 -3.18055e-015 7.55382e-015 5.93788e-007 -1.10855e-006 -2.04886e-006 0.0190136 -0.00118851 -6.03404e-005 2.78299e-015 1.27222e-014 2.38542e-015 5.93788e-007 -1.10855e-006 -2.04886e-006 0.0122927 -0.00325588 -0.000673506 2.78299e-015 3.18055e-015 -2.28602e-015 5.93788e-007 -1.10855e-006 -2.04886e-006 -5.93788e-007 1.10855e-006 2.04886e-006 5.93788e-007 -1.10855e-006 -2.04886e-006 -21.1874 -34.5125 -15.3537 86.7995 28.4073 -99.4773 5.59376 19.4264 6.07036 8.82322e-007 -1.43788e-006 -2.5832e-007 6.8977 -1.10239 8.60016 -1.77223 54.6911 -0.415298 3.47553 36.846 0.232466 -7.19292e-007 -1.32393e-008 5.3924e-007 
4.99069 6.25483 8.17363 92.5445 0.348049 -179.393 0.450073 1.41958 -0.343361 0.909067 2.83639 -0.698192 0.909069 2.83639 -0.698192 7.61714 12.9018 -2.03522 1.08845e-005 13.5117 -1.58316e-006 -10.5258 -11.3577 -11.1801 -58.0741 15.7756 -30.4081 -10.7279 5.94723 -57.3786 -52.3251 5.3468 -8.57164 -1.53107e-031 -4.77083e-015 -1.83876e-015 -3.0567e-006 1.96294e-007 -3.72477e-006 -0 0 3.926e-015 -1.53107e-031 -4.77083e-015 -1.83876e-015 -0.0145956 -9.07343e-005 2.19995e-006 1.34414e-007 1.33601e-006 9.21487e-007 -1.53107e-031 -4.77083e-015 -1.83876e-015 -0.0187497 -0.00117811 6.32534e-005 3.97569e-016 1.59028e-015 -1.59028e-015 -1.53107e-031 -4.77083e-015 -1.83876e-015 -0.0122378 -0.00324285 0.000675583 0 0 -1.59028e-015 -1.53107e-031 -4.77083e-015 -1.83876e-015 -3.0567e-006 1.96294e-007 -3.72477e-006 -0 0 3.926e-015 -14.5176 -15.0259 -12.1123 53.772 8.86157 53.1839 56.3435 0.125442 71.7677 44.3308 -8.82907 12.3251 -7.95139e-016 -1.59028e-015 -4.96962e-015 1.40693e-031 1.59028e-015 -5.06901e-015 0 0 -8.44835e-015 -7.95139e-016 -1.59028e-015 -4.96962e-015 0.0150087 -8.59065e-005 7.71918e-006 1.19271e-015 -4.77083e-015 -4.57205e-015 -7.95139e-016 -1.59028e-015 -4.96962e-015 0.0190203 -0.00119086 -5.49199e-005 3.97569e-016 1.27222e-014 -1.78906e-015 -7.95139e-016 -1.59028e-015 -4.96962e-015 0.012246 -0.00324322 -0.00067895 -3.97569e-016 0 6.4605e-015 -7.95139e-016 -1.59028e-015 -4.96962e-015 1.40693e-031 1.59028e-015 -5.06901e-015 0 0 -8.44835e-015 -21.1404 -34.7249 -15.4023 86.7983 28.4072 -99.4756 5.49102 19.4549 5.84144 2.20566e-007 -3.59292e-007 -6.55428e-008 6.89898 -1.42693 8.63214 -1.71116 55.0087 -0.452344 3.47211 36.8374 0.233895 6.6824e-006 -3.48153e-006 -3.59996e-006 
